<svg width="48" height="48" fill="none" xmlns="http://www.w3.org/2000/svg"><path clip-rule="evenodd" d="M24 56c17.673 0 32-14.327 32-32C56 6.327 41.673-8 24-8 6.327-8-8 6.327-8 24c0 17.673 14.327 32 32 32Z" stroke="#001A49" stroke-width="4"/><path fill-rule="evenodd" clip-rule="evenodd" d="M26 8a2 2 0 1 0-4 0v2a8 8 0 0 0 0 16v8a4.002 4.002 0 0 1-3.773-2.666 2 2 0 0 0-3.771 1.332A8.003 8.003 0 0 0 22 38v2a2 2 0 0 0 4 0v-2a8 8 0 0 0 0-16v-8a4.002 4.002 0 0 1 3.773 2.666 2 2 0 0 0 3.771-1.332A8.003 8.003 0 0 0 26 10V8Zm-4 6a4 4 0 1 0 0 8v-8Zm4 12v8a4 4 0 1 0 0-8Z" fill="#001A49"/></svg>